<svg width="750" height="750" viewBox="0 0 750 750" fill="none" xmlns="http://www.w3.org/2000/svg">
<rect width="750" height="750" rx="10" fill="#FFCADD"/>
<path d="M189.702 113.438V77.4858H200.909V82.0028H195.554V108.906H200.909V113.438H189.702ZM216.85 80.9091V110H210.7V86.7472H210.529L203.867 90.9233V85.4688L211.069 80.9091H216.85ZM234.929 110.398C233.433 110.388 231.989 110.137 230.597 109.645C229.214 109.152 227.973 108.352 226.875 107.244C225.777 106.136 224.905 104.669 224.261 102.841C223.627 101.013 223.31 98.7689 223.31 96.108C223.319 93.6648 223.598 91.482 224.148 89.5597C224.706 87.6278 225.502 85.9896 226.534 84.6449C227.576 83.3002 228.821 82.2775 230.27 81.5767C231.719 80.8665 233.343 80.5114 235.142 80.5114C237.083 80.5114 238.797 80.8902 240.284 81.6477C241.771 82.3958 242.964 83.4138 243.864 84.7017C244.773 85.9896 245.322 87.4337 245.511 89.0341H239.446C239.209 88.0208 238.712 87.2254 237.955 86.6477C237.197 86.0701 236.259 85.7812 235.142 85.7812C233.248 85.7812 231.809 86.6051 230.824 88.2528C229.848 89.9006 229.351 92.1402 229.332 94.9716H229.531C229.967 94.1098 230.554 93.3759 231.293 92.7699C232.041 92.1544 232.888 91.6856 233.835 91.3636C234.792 91.0322 235.8 90.8665 236.861 90.8665C238.584 90.8665 240.118 91.2737 241.463 92.0881C242.808 92.893 243.868 94.0009 244.645 95.4119C245.421 96.8229 245.81 98.4375 245.81 100.256C245.81 102.225 245.35 103.977 244.432 105.511C243.523 107.045 242.249 108.248 240.611 109.119C238.982 109.981 237.088 110.407 234.929 110.398ZM234.901 105.568C235.848 105.568 236.695 105.341 237.443 104.886C238.191 104.432 238.778 103.816 239.205 103.04C239.631 102.263 239.844 101.392 239.844 100.426C239.844 99.4602 239.631 98.5937 239.205 97.8267C238.788 97.0597 238.21 96.4489 237.472 95.9943C236.733 95.5398 235.89 95.3125 234.943 95.3125C234.233 95.3125 233.575 95.4451 232.969 95.7102C232.372 95.9754 231.847 96.3447 231.392 96.8182C230.947 97.2917 230.597 97.8409 230.341 98.4659C230.085 99.0814 229.957 99.7396 229.957 100.44C229.957 101.378 230.17 102.235 230.597 103.011C231.032 103.788 231.619 104.408 232.358 104.872C233.106 105.336 233.954 105.568 234.901 105.568ZM255.593 106.023L255.437 107.585C255.314 108.835 255.077 110.08 254.727 111.321C254.386 112.571 254.026 113.703 253.647 114.716C253.278 115.729 252.979 116.525 252.752 117.102H248.832C248.974 116.544 249.168 115.762 249.414 114.759C249.66 113.764 249.892 112.647 250.11 111.406C250.328 110.166 250.465 108.902 250.522 107.614L250.593 106.023H255.593ZM268.96 110V105.568L279.315 95.9801C280.195 95.1278 280.934 94.3608 281.531 93.679C282.137 92.9972 282.596 92.3295 282.908 91.6761C283.221 91.0133 283.377 90.2983 283.377 89.5312C283.377 88.679 283.183 87.9451 282.795 87.3295C282.406 86.7045 281.876 86.2263 281.204 85.8949C280.531 85.554 279.769 85.3835 278.917 85.3835C278.027 85.3835 277.25 85.5634 276.587 85.9233C275.924 86.2831 275.413 86.7992 275.053 87.4716C274.693 88.1439 274.513 88.9441 274.513 89.8722H268.675C268.675 87.9687 269.106 86.3163 269.968 84.9148C270.83 83.5133 272.037 82.429 273.59 81.6619C275.143 80.8949 276.933 80.5114 278.96 80.5114C281.043 80.5114 282.856 80.8807 284.4 81.6193C285.953 82.3485 287.16 83.3617 288.022 84.6591C288.884 85.9564 289.315 87.4432 289.315 89.1193C289.315 90.2178 289.097 91.3021 288.661 92.3722C288.235 93.4422 287.473 94.6307 286.374 95.9375C285.276 97.2348 283.728 98.7926 281.729 100.611L277.482 104.773V104.972H289.698V110H268.96ZM306.811 80.9091V110H300.661V86.7472H300.49L293.828 90.9233V85.4688L301.03 80.9091H306.811ZM318.796 106.023L318.64 107.585C318.517 108.835 318.28 110.08 317.93 111.321C317.589 112.571 317.229 113.703 316.85 114.716C316.481 115.729 316.183 116.525 315.955 117.102H312.035C312.177 116.544 312.371 115.762 312.617 114.759C312.863 113.764 313.095 112.647 313.313 111.406C313.531 110.166 313.668 108.902 313.725 107.614L313.796 106.023H318.796ZM344.819 80.9091V110H338.668V86.7472H338.498L331.836 90.9233V85.4688L339.038 80.9091H344.819ZM364.389 80.9091V110H358.239V86.7472H358.068L351.406 90.9233V85.4688L358.608 80.9091H364.389ZM376.374 106.023L376.218 107.585C376.095 108.835 375.858 110.08 375.508 111.321C375.167 112.571 374.807 113.703 374.428 114.716C374.059 115.729 373.761 116.525 373.533 117.102H369.613C369.755 116.544 369.949 115.762 370.195 114.759C370.442 113.764 370.674 112.647 370.891 111.406C371.109 110.166 371.246 108.902 371.303 107.614L371.374 106.023H376.374ZM400.593 110.398C398.406 110.398 396.46 110.043 394.755 109.332C393.06 108.613 391.729 107.633 390.763 106.392C389.798 105.152 389.315 103.745 389.315 102.173C389.315 100.961 389.589 99.8485 390.138 98.8352C390.697 97.8125 391.455 96.965 392.411 96.2926C393.368 95.6108 394.438 95.1752 395.621 94.9858V94.7869C394.068 94.4744 392.809 93.7216 391.843 92.5284C390.877 91.3258 390.394 89.929 390.394 88.3381C390.394 86.8324 390.835 85.4924 391.715 84.3182C392.596 83.1345 393.803 82.2064 395.337 81.5341C396.881 80.8523 398.633 80.5114 400.593 80.5114C402.553 80.5114 404.3 80.8523 405.835 81.5341C407.378 82.2159 408.59 83.1487 409.471 84.3324C410.352 85.5066 410.797 86.8419 410.806 88.3381C410.797 89.9384 410.304 91.3352 409.329 92.5284C408.353 93.7216 407.103 94.4744 405.579 94.7869V94.9858C406.744 95.1752 407.799 95.6108 408.746 96.2926C409.703 96.965 410.46 97.8125 411.019 98.8352C411.587 99.8485 411.876 100.961 411.886 102.173C411.876 103.745 411.388 105.152 410.423 106.392C409.457 107.633 408.121 108.613 406.417 109.332C404.722 110.043 402.781 110.398 400.593 110.398ZM400.593 105.881C401.568 105.881 402.421 105.705 403.15 105.355C403.879 104.995 404.447 104.503 404.854 103.878C405.271 103.243 405.479 102.514 405.479 101.69C405.479 100.848 405.266 100.104 404.84 99.4602C404.414 98.8068 403.836 98.2955 403.107 97.9261C402.378 97.5473 401.54 97.358 400.593 97.358C399.656 97.358 398.817 97.5473 398.079 97.9261C397.34 98.2955 396.758 98.8068 396.332 99.4602C395.915 100.104 395.707 100.848 395.707 101.69C395.707 102.514 395.91 103.243 396.317 103.878C396.725 104.503 397.298 104.995 398.036 105.355C398.775 105.705 399.627 105.881 400.593 105.881ZM400.593 92.8835C401.407 92.8835 402.132 92.7178 402.766 92.3864C403.401 92.0549 403.898 91.5956 404.258 91.0085C404.618 90.4214 404.798 89.7443 404.798 88.9773C404.798 88.2197 404.618 87.5568 404.258 86.9886C403.898 86.411 403.406 85.9612 402.781 85.6392C402.156 85.3078 401.426 85.142 400.593 85.142C399.769 85.142 399.04 85.3078 398.406 85.6392C397.771 85.9612 397.274 86.411 396.914 86.9886C396.564 87.5568 396.388 88.2197 396.388 88.9773C396.388 89.7443 396.568 90.4214 396.928 91.0085C397.288 91.5956 397.785 92.0549 398.42 92.3864C399.054 92.7178 399.779 92.8835 400.593 92.8835ZM421.999 106.023L421.843 107.585C421.72 108.835 421.483 110.08 421.133 111.321C420.792 112.571 420.432 113.703 420.053 114.716C419.684 115.729 419.386 116.525 419.158 117.102H415.238C415.38 116.544 415.574 115.762 415.82 114.759C416.067 113.764 416.299 112.647 416.516 111.406C416.734 110.166 416.871 108.902 416.928 107.614L416.999 106.023H421.999ZM448.022 80.9091V110H441.871V86.7472H441.701L435.039 90.9233V85.4688L442.241 80.9091H448.022ZM454.936 110V105.568L465.291 95.9801C466.172 95.1278 466.911 94.3608 467.507 93.679C468.113 92.9972 468.572 92.3295 468.885 91.6761C469.197 91.0133 469.354 90.2983 469.354 89.5312C469.354 88.679 469.16 87.9451 468.771 87.3295C468.383 86.7045 467.853 86.2263 467.18 85.8949C466.508 85.554 465.746 85.3835 464.893 85.3835C464.003 85.3835 463.227 85.5634 462.564 85.9233C461.901 86.2831 461.39 86.7992 461.03 87.4716C460.67 88.1439 460.49 88.9441 460.49 89.8722H454.652C454.652 87.9687 455.083 86.3163 455.945 84.9148C456.806 83.5133 458.014 82.429 459.567 81.6619C461.12 80.8949 462.91 80.5114 464.936 80.5114C467.019 80.5114 468.833 80.8807 470.376 81.6193C471.929 82.3485 473.137 83.3617 473.999 84.6591C474.86 85.9564 475.291 87.4432 475.291 89.1193C475.291 90.2178 475.073 91.3021 474.638 92.3722C474.212 93.4422 473.449 94.6307 472.351 95.9375C471.252 97.2348 469.704 98.7926 467.706 100.611L463.459 104.773V104.972H475.675V110H454.936ZM486.765 106.023L486.609 107.585C486.486 108.835 486.249 110.08 485.898 111.321C485.558 112.571 485.198 113.703 484.819 114.716C484.45 115.729 484.151 116.525 483.924 117.102H480.004C480.146 116.544 480.34 115.762 480.586 114.759C480.832 113.764 481.064 112.647 481.282 111.406C481.5 110.166 481.637 108.902 481.694 107.614L481.765 106.023H486.765ZM500.131 110V105.568L510.487 95.9801C511.367 95.1278 512.106 94.3608 512.702 93.679C513.308 92.9972 513.768 92.3295 514.08 91.6761C514.393 91.0133 514.549 90.2983 514.549 89.5312C514.549 88.679 514.355 87.9451 513.967 87.3295C513.578 86.7045 513.048 86.2263 512.376 85.8949C511.703 85.554 510.941 85.3835 510.089 85.3835C509.199 85.3835 508.422 85.5634 507.759 85.9233C507.096 86.2831 506.585 86.7992 506.225 87.4716C505.865 88.1439 505.685 88.9441 505.685 89.8722H499.847C499.847 87.9687 500.278 86.3163 501.14 84.9148C502.002 83.5133 503.209 82.429 504.762 81.6619C506.315 80.8949 508.105 80.5114 510.131 80.5114C512.215 80.5114 514.028 80.8807 515.572 81.6193C517.125 82.3485 518.332 83.3617 519.194 84.6591C520.056 85.9564 520.487 87.4432 520.487 89.1193C520.487 90.2178 520.269 91.3021 519.833 92.3722C519.407 93.4422 518.645 94.6307 517.546 95.9375C516.448 97.2348 514.899 98.7926 512.901 100.611L508.654 104.773V104.972H520.87V110H500.131ZM525.327 110V105.568L535.682 95.9801C536.563 95.1278 537.301 94.3608 537.898 93.679C538.504 92.9972 538.963 92.3295 539.276 91.6761C539.588 91.0133 539.744 90.2983 539.744 89.5312C539.744 88.679 539.55 87.9451 539.162 87.3295C538.774 86.7045 538.243 86.2263 537.571 85.8949C536.899 85.554 536.136 85.3835 535.284 85.3835C534.394 85.3835 533.617 85.5634 532.955 85.9233C532.292 86.2831 531.78 86.7992 531.42 87.4716C531.061 88.1439 530.881 88.9441 530.881 89.8722H525.043C525.043 87.9687 525.473 86.3163 526.335 84.9148C527.197 83.5133 528.404 82.429 529.957 81.6619C531.51 80.8949 533.3 80.5114 535.327 80.5114C537.41 80.5114 539.223 80.8807 540.767 81.6193C542.32 82.3485 543.527 83.3617 544.389 84.6591C545.251 85.9564 545.682 87.4432 545.682 89.1193C545.682 90.2178 545.464 91.3021 545.028 92.3722C544.602 93.4422 543.84 94.6307 542.741 95.9375C541.643 97.2348 540.095 98.7926 538.097 100.611L533.849 104.773V104.972H546.065V110H525.327ZM560.295 77.4858V113.438H549.087V108.906H554.442V82.0028H549.087V77.4858H560.295Z" fill="#575757"/>
<path d="M189.702 671.438V635.486H200.909V640.003H195.554V666.906H200.909V671.438H189.702ZM215.046 668.398C212.859 668.398 210.913 668.043 209.208 667.332C207.513 666.613 206.183 665.633 205.217 664.392C204.251 663.152 203.768 661.745 203.768 660.173C203.768 658.961 204.042 657.848 204.592 656.835C205.15 655.812 205.908 654.965 206.864 654.293C207.821 653.611 208.891 653.175 210.075 652.986V652.787C208.522 652.474 207.262 651.722 206.296 650.528C205.33 649.326 204.847 647.929 204.847 646.338C204.847 644.832 205.288 643.492 206.168 642.318C207.049 641.134 208.256 640.206 209.79 639.534C211.334 638.852 213.086 638.511 215.046 638.511C217.006 638.511 218.754 638.852 220.288 639.534C221.831 640.216 223.043 641.149 223.924 642.332C224.805 643.507 225.25 644.842 225.259 646.338C225.25 647.938 224.757 649.335 223.782 650.528C222.807 651.722 221.557 652.474 220.032 652.787V652.986C221.197 653.175 222.253 653.611 223.2 654.293C224.156 654.965 224.914 655.812 225.472 656.835C226.04 657.848 226.329 658.961 226.339 660.173C226.329 661.745 225.842 663.152 224.876 664.392C223.91 665.633 222.575 666.613 220.87 667.332C219.175 668.043 217.234 668.398 215.046 668.398ZM215.046 663.881C216.022 663.881 216.874 663.705 217.603 663.355C218.332 662.995 218.9 662.503 219.308 661.878C219.724 661.243 219.933 660.514 219.933 659.69C219.933 658.848 219.719 658.104 219.293 657.46C218.867 656.807 218.29 656.295 217.56 655.926C216.831 655.547 215.993 655.358 215.046 655.358C214.109 655.358 213.271 655.547 212.532 655.926C211.793 656.295 211.211 656.807 210.785 657.46C210.368 658.104 210.16 658.848 210.16 659.69C210.16 660.514 210.363 661.243 210.771 661.878C211.178 662.503 211.751 662.995 212.489 663.355C213.228 663.705 214.08 663.881 215.046 663.881ZM215.046 650.884C215.861 650.884 216.585 650.718 217.219 650.386C217.854 650.055 218.351 649.596 218.711 649.009C219.071 648.421 219.251 647.744 219.251 646.977C219.251 646.22 219.071 645.557 218.711 644.989C218.351 644.411 217.859 643.961 217.234 643.639C216.609 643.308 215.879 643.142 215.046 643.142C214.222 643.142 213.493 643.308 212.859 643.639C212.224 643.961 211.727 644.411 211.367 644.989C211.017 645.557 210.842 646.22 210.842 646.977C210.842 647.744 211.022 648.421 211.381 649.009C211.741 649.596 212.238 650.055 212.873 650.386C213.507 650.718 214.232 650.884 215.046 650.884ZM236.452 664.023L236.296 665.585C236.173 666.835 235.936 668.08 235.586 669.321C235.245 670.571 234.885 671.703 234.506 672.716C234.137 673.729 233.839 674.525 233.612 675.102H229.691C229.833 674.544 230.027 673.762 230.273 672.759C230.52 671.764 230.752 670.647 230.969 669.406C231.187 668.166 231.325 666.902 231.381 665.614L231.452 664.023H236.452ZM262.475 638.909V668H256.325V644.747H256.154L249.492 648.923V643.469L256.694 638.909H262.475ZM282.045 638.909V668H275.895V644.747H275.724L269.062 648.923V643.469L276.264 638.909H282.045ZM294.031 664.023L293.874 665.585C293.751 666.835 293.514 668.08 293.164 669.321C292.823 670.571 292.463 671.703 292.085 672.716C291.715 673.729 291.417 674.525 291.19 675.102H287.269C287.411 674.544 287.605 673.762 287.852 672.759C288.098 671.764 288.33 670.647 288.548 669.406C288.765 668.166 288.903 666.902 288.96 665.614L289.031 664.023H294.031ZM320.053 638.909V668H313.903V644.747H313.732L307.07 648.923V643.469L314.272 638.909H320.053ZM326.967 668V663.568L337.322 653.98C338.203 653.128 338.942 652.361 339.538 651.679C340.144 650.997 340.604 650.33 340.916 649.676C341.229 649.013 341.385 648.298 341.385 647.531C341.385 646.679 341.191 645.945 340.803 645.33C340.414 644.705 339.884 644.226 339.212 643.895C338.539 643.554 337.777 643.384 336.925 643.384C336.035 643.384 335.258 643.563 334.595 643.923C333.932 644.283 333.421 644.799 333.061 645.472C332.701 646.144 332.521 646.944 332.521 647.872H326.683C326.683 645.969 327.114 644.316 327.976 642.915C328.838 641.513 330.045 640.429 331.598 639.662C333.151 638.895 334.941 638.511 336.967 638.511C339.051 638.511 340.864 638.881 342.408 639.619C343.961 640.348 345.168 641.362 346.03 642.659C346.892 643.956 347.322 645.443 347.322 647.119C347.322 648.218 347.105 649.302 346.669 650.372C346.243 651.442 345.481 652.631 344.382 653.938C343.284 655.235 341.735 656.793 339.737 658.611L335.49 662.773V662.972H347.706V668H326.967ZM358.796 664.023L358.64 665.585C358.517 666.835 358.28 668.08 357.93 669.321C357.589 670.571 357.229 671.703 356.85 672.716C356.481 673.729 356.183 674.525 355.955 675.102H352.035C352.177 674.544 352.371 673.762 352.617 672.759C352.863 671.764 353.095 670.647 353.313 669.406C353.531 668.166 353.668 666.902 353.725 665.614L353.796 664.023H358.796ZM384.819 638.909V668H378.668V644.747H378.498L371.836 648.923V643.469L379.038 638.909H384.819ZM402.898 668.398C401.402 668.388 399.957 668.137 398.565 667.645C397.183 667.152 395.942 666.352 394.844 665.244C393.745 664.136 392.874 662.669 392.23 660.841C391.596 659.013 391.278 656.769 391.278 654.108C391.288 651.665 391.567 649.482 392.116 647.56C392.675 645.628 393.471 643.99 394.503 642.645C395.545 641.3 396.79 640.277 398.239 639.577C399.688 638.866 401.312 638.511 403.111 638.511C405.052 638.511 406.766 638.89 408.253 639.648C409.74 640.396 410.933 641.414 411.832 642.702C412.741 643.99 413.291 645.434 413.48 647.034H407.415C407.178 646.021 406.681 645.225 405.923 644.648C405.166 644.07 404.228 643.781 403.111 643.781C401.217 643.781 399.777 644.605 398.793 646.253C397.817 647.901 397.32 650.14 397.301 652.972H397.5C397.936 652.11 398.523 651.376 399.261 650.77C400.009 650.154 400.857 649.686 401.804 649.364C402.76 649.032 403.769 648.866 404.83 648.866C406.553 648.866 408.087 649.274 409.432 650.088C410.777 650.893 411.837 652.001 412.614 653.412C413.39 654.823 413.778 656.437 413.778 658.256C413.778 660.225 413.319 661.977 412.401 663.511C411.491 665.045 410.218 666.248 408.58 667.119C406.951 667.981 405.057 668.407 402.898 668.398ZM402.869 663.568C403.816 663.568 404.664 663.341 405.412 662.886C406.16 662.432 406.747 661.816 407.173 661.04C407.599 660.263 407.812 659.392 407.812 658.426C407.812 657.46 407.599 656.594 407.173 655.827C406.757 655.06 406.179 654.449 405.44 653.994C404.702 653.54 403.859 653.312 402.912 653.312C402.202 653.312 401.544 653.445 400.938 653.71C400.341 653.975 399.815 654.345 399.361 654.818C398.916 655.292 398.565 655.841 398.31 656.466C398.054 657.081 397.926 657.74 397.926 658.44C397.926 659.378 398.139 660.235 398.565 661.011C399.001 661.788 399.588 662.408 400.327 662.872C401.075 663.336 401.922 663.568 402.869 663.568ZM423.562 664.023L423.406 665.585C423.282 666.835 423.046 668.08 422.695 669.321C422.354 670.571 421.995 671.703 421.616 672.716C421.246 673.729 420.948 674.525 420.721 675.102H416.8C416.942 674.544 417.137 673.762 417.383 672.759C417.629 671.764 417.861 670.647 418.079 669.406C418.297 668.166 418.434 666.902 418.491 665.614L418.562 664.023H423.562ZM436.928 668V663.568L447.283 653.98C448.164 653.128 448.903 652.361 449.499 651.679C450.105 650.997 450.565 650.33 450.877 649.676C451.19 649.013 451.346 648.298 451.346 647.531C451.346 646.679 451.152 645.945 450.763 645.33C450.375 644.705 449.845 644.226 449.173 643.895C448.5 643.554 447.738 643.384 446.886 643.384C445.996 643.384 445.219 643.563 444.556 643.923C443.893 644.283 443.382 644.799 443.022 645.472C442.662 646.144 442.482 646.944 442.482 647.872H436.644C436.644 645.969 437.075 644.316 437.937 642.915C438.799 641.513 440.006 640.429 441.559 639.662C443.112 638.895 444.902 638.511 446.928 638.511C449.012 638.511 450.825 638.881 452.369 639.619C453.922 640.348 455.129 641.362 455.991 642.659C456.853 643.956 457.283 645.443 457.283 647.119C457.283 648.218 457.066 649.302 456.63 650.372C456.204 651.442 455.442 652.631 454.343 653.938C453.245 655.235 451.696 656.793 449.698 658.611L445.451 662.773V662.972H457.667V668H436.928ZM474.78 638.909V668H468.629V644.747H468.459L461.797 648.923V643.469L468.999 638.909H474.78ZM486.765 664.023L486.609 665.585C486.486 666.835 486.249 668.08 485.898 669.321C485.558 670.571 485.198 671.703 484.819 672.716C484.45 673.729 484.151 674.525 483.924 675.102H480.004C480.146 674.544 480.34 673.762 480.586 672.759C480.832 671.764 481.064 670.647 481.282 669.406C481.5 668.166 481.637 666.902 481.694 665.614L481.765 664.023H486.765ZM500.131 668V663.568L510.487 653.98C511.367 653.128 512.106 652.361 512.702 651.679C513.308 650.997 513.768 650.33 514.08 649.676C514.393 649.013 514.549 648.298 514.549 647.531C514.549 646.679 514.355 645.945 513.967 645.33C513.578 644.705 513.048 644.226 512.376 643.895C511.703 643.554 510.941 643.384 510.089 643.384C509.199 643.384 508.422 643.563 507.759 643.923C507.096 644.283 506.585 644.799 506.225 645.472C505.865 646.144 505.685 646.944 505.685 647.872H499.847C499.847 645.969 500.278 644.316 501.14 642.915C502.002 641.513 503.209 640.429 504.762 639.662C506.315 638.895 508.105 638.511 510.131 638.511C512.215 638.511 514.028 638.881 515.572 639.619C517.125 640.348 518.332 641.362 519.194 642.659C520.056 643.956 520.487 645.443 520.487 647.119C520.487 648.218 520.269 649.302 519.833 650.372C519.407 651.442 518.645 652.631 517.546 653.938C516.448 655.235 514.899 656.793 512.901 658.611L508.654 662.773V662.972H520.87V668H500.131ZM525.327 668V663.568L535.682 653.98C536.563 653.128 537.301 652.361 537.898 651.679C538.504 650.997 538.963 650.33 539.276 649.676C539.588 649.013 539.744 648.298 539.744 647.531C539.744 646.679 539.55 645.945 539.162 645.33C538.774 644.705 538.243 644.226 537.571 643.895C536.899 643.554 536.136 643.384 535.284 643.384C534.394 643.384 533.617 643.563 532.955 643.923C532.292 644.283 531.78 644.799 531.42 645.472C531.061 646.144 530.881 646.944 530.881 647.872H525.043C525.043 645.969 525.473 644.316 526.335 642.915C527.197 641.513 528.404 640.429 529.957 639.662C531.51 638.895 533.3 638.511 535.327 638.511C537.41 638.511 539.223 638.881 540.767 639.619C542.32 640.348 543.527 641.362 544.389 642.659C545.251 643.956 545.682 645.443 545.682 647.119C545.682 648.218 545.464 649.302 545.028 650.372C544.602 651.442 543.84 652.631 542.741 653.938C541.643 655.235 540.095 656.793 538.097 658.611L533.849 662.773V662.972H546.065V668H525.327ZM560.295 635.486V671.438H549.087V666.906H554.442V640.003H549.087V635.486H560.295Z" fill="#575757"/>
<path d="M145.17 246.438V210.486H156.378V215.003H151.023V241.906H156.378V246.438H145.17ZM172.319 213.909V243H166.168V219.747H165.998L159.336 223.923V218.469L166.538 213.909H172.319ZM190.398 243.398C188.902 243.388 187.457 243.137 186.065 242.645C184.683 242.152 183.442 241.352 182.344 240.244C181.245 239.136 180.374 237.669 179.73 235.841C179.096 234.013 178.778 231.769 178.778 229.108C178.788 226.665 179.067 224.482 179.616 222.56C180.175 220.628 180.971 218.99 182.003 217.645C183.045 216.3 184.29 215.277 185.739 214.577C187.188 213.866 188.812 213.511 190.611 213.511C192.552 213.511 194.266 213.89 195.753 214.648C197.24 215.396 198.433 216.414 199.332 217.702C200.241 218.99 200.791 220.434 200.98 222.034H194.915C194.678 221.021 194.181 220.225 193.423 219.648C192.666 219.07 191.728 218.781 190.611 218.781C188.717 218.781 187.277 219.605 186.293 221.253C185.317 222.901 184.82 225.14 184.801 227.972H185C185.436 227.11 186.023 226.376 186.761 225.77C187.509 225.154 188.357 224.686 189.304 224.364C190.26 224.032 191.269 223.866 192.33 223.866C194.053 223.866 195.587 224.274 196.932 225.088C198.277 225.893 199.337 227.001 200.114 228.412C200.89 229.823 201.278 231.437 201.278 233.256C201.278 235.225 200.819 236.977 199.901 238.511C198.991 240.045 197.718 241.248 196.08 242.119C194.451 242.981 192.557 243.407 190.398 243.398ZM190.369 238.568C191.316 238.568 192.164 238.341 192.912 237.886C193.66 237.432 194.247 236.816 194.673 236.04C195.099 235.263 195.312 234.392 195.312 233.426C195.312 232.46 195.099 231.594 194.673 230.827C194.257 230.06 193.679 229.449 192.94 228.994C192.202 228.54 191.359 228.312 190.412 228.312C189.702 228.312 189.044 228.445 188.438 228.71C187.841 228.975 187.315 229.345 186.861 229.818C186.416 230.292 186.065 230.841 185.81 231.466C185.554 232.081 185.426 232.74 185.426 233.44C185.426 234.378 185.639 235.235 186.065 236.011C186.501 236.788 187.088 237.408 187.827 237.872C188.575 238.336 189.422 238.568 190.369 238.568ZM211.062 239.023L210.906 240.585C210.782 241.835 210.546 243.08 210.195 244.321C209.854 245.571 209.495 246.703 209.116 247.716C208.746 248.729 208.448 249.525 208.221 250.102H204.3C204.442 249.544 204.637 248.762 204.883 247.759C205.129 246.764 205.361 245.647 205.579 244.406C205.797 243.166 205.934 241.902 205.991 240.614L206.062 239.023H211.062ZM224.428 243V238.568L234.783 228.98C235.664 228.128 236.403 227.361 236.999 226.679C237.605 225.997 238.065 225.33 238.377 224.676C238.69 224.013 238.846 223.298 238.846 222.531C238.846 221.679 238.652 220.945 238.263 220.33C237.875 219.705 237.345 219.226 236.673 218.895C236 218.554 235.238 218.384 234.386 218.384C233.496 218.384 232.719 218.563 232.056 218.923C231.393 219.283 230.882 219.799 230.522 220.472C230.162 221.144 229.982 221.944 229.982 222.872H224.144C224.144 220.969 224.575 219.316 225.437 217.915C226.299 216.513 227.506 215.429 229.059 214.662C230.612 213.895 232.402 213.511 234.428 213.511C236.512 213.511 238.325 213.881 239.869 214.619C241.422 215.348 242.629 216.362 243.491 217.659C244.353 218.956 244.783 220.443 244.783 222.119C244.783 223.218 244.566 224.302 244.13 225.372C243.704 226.442 242.942 227.631 241.843 228.938C240.745 230.235 239.196 231.793 237.198 233.611L232.951 237.773V237.972H245.167V243H224.428ZM262.28 213.909V243H256.129V219.747H255.959L249.297 223.923V218.469L256.499 213.909H262.28ZM274.265 239.023L274.109 240.585C273.986 241.835 273.749 243.08 273.398 244.321C273.058 245.571 272.698 246.703 272.319 247.716C271.95 248.729 271.651 249.525 271.424 250.102H267.504C267.646 249.544 267.84 248.762 268.086 247.759C268.332 246.764 268.564 245.647 268.782 244.406C269 243.166 269.137 241.902 269.194 240.614L269.265 239.023H274.265ZM300.288 213.909V243H294.137V219.747H293.967L287.305 223.923V218.469L294.506 213.909H300.288ZM319.858 213.909V243H313.707V219.747H313.537L306.875 223.923V218.469L314.077 213.909H319.858ZM336.545 210.486V246.438H325.337V241.906H330.692V215.003H325.337V210.486H336.545ZM366.048 226.054V230.855H352.781V226.054H366.048ZM384.798 226.054V230.855H371.531V226.054H384.798ZM403.548 226.054V230.855H390.281V226.054H403.548ZM419.78 246.438V210.486H430.987V215.003H425.632V241.906H430.987V246.438H419.78ZM445.124 243.398C442.937 243.398 440.991 243.043 439.286 242.332C437.591 241.613 436.261 240.633 435.295 239.392C434.329 238.152 433.846 236.745 433.846 235.173C433.846 233.961 434.121 232.848 434.67 231.835C435.228 230.812 435.986 229.965 436.942 229.293C437.899 228.611 438.969 228.175 440.153 227.986V227.787C438.6 227.474 437.34 226.722 436.374 225.528C435.408 224.326 434.925 222.929 434.925 221.338C434.925 219.832 435.366 218.492 436.246 217.318C437.127 216.134 438.335 215.206 439.869 214.534C441.412 213.852 443.164 213.511 445.124 213.511C447.085 213.511 448.832 213.852 450.366 214.534C451.909 215.216 453.121 216.149 454.002 217.332C454.883 218.507 455.328 219.842 455.337 221.338C455.328 222.938 454.835 224.335 453.86 225.528C452.885 226.722 451.635 227.474 450.11 227.787V227.986C451.275 228.175 452.331 228.611 453.278 229.293C454.234 229.965 454.992 230.812 455.55 231.835C456.119 232.848 456.407 233.961 456.417 235.173C456.407 236.745 455.92 238.152 454.954 239.392C453.988 240.633 452.653 241.613 450.948 242.332C449.253 243.043 447.312 243.398 445.124 243.398ZM445.124 238.881C446.1 238.881 446.952 238.705 447.681 238.355C448.41 237.995 448.978 237.503 449.386 236.878C449.802 236.243 450.011 235.514 450.011 234.69C450.011 233.848 449.798 233.104 449.371 232.46C448.945 231.807 448.368 231.295 447.638 230.926C446.909 230.547 446.071 230.358 445.124 230.358C444.187 230.358 443.349 230.547 442.61 230.926C441.871 231.295 441.289 231.807 440.863 232.46C440.446 233.104 440.238 233.848 440.238 234.69C440.238 235.514 440.442 236.243 440.849 236.878C441.256 237.503 441.829 237.995 442.567 238.355C443.306 238.705 444.158 238.881 445.124 238.881ZM445.124 225.884C445.939 225.884 446.663 225.718 447.298 225.386C447.932 225.055 448.429 224.596 448.789 224.009C449.149 223.421 449.329 222.744 449.329 221.977C449.329 221.22 449.149 220.557 448.789 219.989C448.429 219.411 447.937 218.961 447.312 218.639C446.687 218.308 445.958 218.142 445.124 218.142C444.3 218.142 443.571 218.308 442.937 218.639C442.302 218.961 441.805 219.411 441.445 219.989C441.095 220.557 440.92 221.22 440.92 221.977C440.92 222.744 441.1 223.421 441.46 224.009C441.819 224.596 442.317 225.055 442.951 225.386C443.585 225.718 444.31 225.884 445.124 225.884ZM466.531 239.023L466.374 240.585C466.251 241.835 466.014 243.08 465.664 244.321C465.323 245.571 464.963 246.703 464.585 247.716C464.215 248.729 463.917 249.525 463.69 250.102H459.769C459.911 249.544 460.105 248.762 460.352 247.759C460.598 246.764 460.83 245.647 461.048 244.406C461.265 243.166 461.403 241.902 461.46 240.614L461.531 239.023H466.531ZM492.553 213.909V243H486.403V219.747H486.232L479.57 223.923V218.469L486.772 213.909H492.553ZM499.467 243V238.568L509.822 228.98C510.703 228.128 511.442 227.361 512.038 226.679C512.644 225.997 513.104 225.33 513.416 224.676C513.729 224.013 513.885 223.298 513.885 222.531C513.885 221.679 513.691 220.945 513.303 220.33C512.914 219.705 512.384 219.226 511.712 218.895C511.039 218.554 510.277 218.384 509.425 218.384C508.535 218.384 507.758 218.563 507.095 218.923C506.432 219.283 505.921 219.799 505.561 220.472C505.201 221.144 505.021 221.944 505.021 222.872H499.183C499.183 220.969 499.614 219.316 500.476 217.915C501.338 216.513 502.545 215.429 504.098 214.662C505.651 213.895 507.441 213.511 509.467 213.511C511.551 213.511 513.364 213.881 514.908 214.619C516.461 215.348 517.668 216.362 518.53 217.659C519.392 218.956 519.822 220.443 519.822 222.119C519.822 223.218 519.605 224.302 519.169 225.372C518.743 226.442 517.981 227.631 516.882 228.938C515.784 230.235 514.235 231.793 512.237 233.611L507.99 237.773V237.972H520.206V243H499.467ZM531.296 239.023L531.14 240.585C531.017 241.835 530.78 243.08 530.43 244.321C530.089 245.571 529.729 246.703 529.35 247.716C528.981 248.729 528.683 249.525 528.455 250.102H524.535C524.677 249.544 524.871 248.762 525.117 247.759C525.363 246.764 525.595 245.647 525.813 244.406C526.031 243.166 526.168 241.902 526.225 240.614L526.296 239.023H531.296ZM544.663 243V238.568L555.018 228.98C555.898 228.128 556.637 227.361 557.234 226.679C557.84 225.997 558.299 225.33 558.612 224.676C558.924 224.013 559.08 223.298 559.08 222.531C559.08 221.679 558.886 220.945 558.498 220.33C558.11 219.705 557.579 219.226 556.907 218.895C556.235 218.554 555.472 218.384 554.62 218.384C553.73 218.384 552.953 218.563 552.29 218.923C551.628 219.283 551.116 219.799 550.756 220.472C550.397 221.144 550.217 221.944 550.217 222.872H544.379C544.379 220.969 544.809 219.316 545.671 217.915C546.533 216.513 547.74 215.429 549.293 214.662C550.846 213.895 552.636 213.511 554.663 213.511C556.746 213.511 558.559 213.881 560.103 214.619C561.656 215.348 562.863 216.362 563.725 217.659C564.587 218.956 565.018 220.443 565.018 222.119C565.018 223.218 564.8 224.302 564.364 225.372C563.938 226.442 563.176 227.631 562.077 228.938C560.979 230.235 559.431 231.793 557.433 233.611L553.185 237.773V237.972H565.401V243H544.663ZM569.858 243V238.568L580.213 228.98C581.094 228.128 581.832 227.361 582.429 226.679C583.035 225.997 583.494 225.33 583.807 224.676C584.119 224.013 584.276 223.298 584.276 222.531C584.276 221.679 584.081 220.945 583.693 220.33C583.305 219.705 582.775 219.226 582.102 218.895C581.43 218.554 580.668 218.384 579.815 218.384C578.925 218.384 578.149 218.563 577.486 218.923C576.823 219.283 576.312 219.799 575.952 220.472C575.592 221.144 575.412 221.944 575.412 222.872H569.574C569.574 220.969 570.005 219.316 570.866 217.915C571.728 216.513 572.936 215.429 574.489 214.662C576.042 213.895 577.831 213.511 579.858 213.511C581.941 213.511 583.755 213.881 585.298 214.619C586.851 215.348 588.059 216.362 588.92 217.659C589.782 218.956 590.213 220.443 590.213 222.119C590.213 223.218 589.995 224.302 589.56 225.372C589.134 226.442 588.371 227.631 587.273 228.938C586.174 230.235 584.626 231.793 582.628 233.611L578.381 237.773V237.972H590.597V243H569.858ZM604.826 210.486V246.438H593.619V241.906H598.974V215.003H593.619V210.486H604.826Z" fill="#575757"/>
<path d="M145.17 538.438V502.486H156.378V507.003H151.023V533.906H156.378V538.438H145.17ZM172.319 505.909V535H166.168V511.747H165.998L159.336 515.923V510.469L166.538 505.909H172.319ZM191.889 505.909V535H185.739V511.747H185.568L178.906 515.923V510.469L186.108 505.909H191.889ZM203.874 531.023L203.718 532.585C203.595 533.835 203.358 535.08 203.008 536.321C202.667 537.571 202.307 538.703 201.928 539.716C201.559 540.729 201.261 541.525 201.033 542.102H197.113C197.255 541.544 197.449 540.762 197.695 539.759C197.942 538.764 198.174 537.647 198.391 536.406C198.609 535.166 198.746 533.902 198.803 532.614L198.874 531.023H203.874ZM229.897 505.909V535H223.746V511.747H223.576L216.914 515.923V510.469L224.116 505.909H229.897ZM247.976 535.398C246.48 535.388 245.036 535.137 243.643 534.645C242.261 534.152 241.02 533.352 239.922 532.244C238.823 531.136 237.952 529.669 237.308 527.841C236.674 526.013 236.357 523.769 236.357 521.108C236.366 518.665 236.645 516.482 237.195 514.56C237.753 512.628 238.549 510.99 239.581 509.645C240.623 508.3 241.868 507.277 243.317 506.577C244.766 505.866 246.39 505.511 248.189 505.511C250.13 505.511 251.844 505.89 253.331 506.648C254.818 507.396 256.011 508.414 256.911 509.702C257.82 510.99 258.369 512.434 258.558 514.034H252.493C252.256 513.021 251.759 512.225 251.001 511.648C250.244 511.07 249.306 510.781 248.189 510.781C246.295 510.781 244.856 511.605 243.871 513.253C242.895 514.901 242.398 517.14 242.379 519.972H242.578C243.014 519.11 243.601 518.376 244.339 517.77C245.088 517.154 245.935 516.686 246.882 516.364C247.839 516.032 248.847 515.866 249.908 515.866C251.631 515.866 253.165 516.274 254.51 517.088C255.855 517.893 256.915 519.001 257.692 520.412C258.468 521.823 258.857 523.437 258.857 525.256C258.857 527.225 258.397 528.977 257.479 530.511C256.57 532.045 255.296 533.248 253.658 534.119C252.029 534.981 250.135 535.407 247.976 535.398ZM247.947 530.568C248.894 530.568 249.742 530.341 250.49 529.886C251.238 529.432 251.825 528.816 252.251 528.04C252.678 527.263 252.891 526.392 252.891 525.426C252.891 524.46 252.678 523.594 252.251 522.827C251.835 522.06 251.257 521.449 250.518 520.994C249.78 520.54 248.937 520.312 247.99 520.312C247.28 520.312 246.622 520.445 246.016 520.71C245.419 520.975 244.893 521.345 244.439 521.818C243.994 522.292 243.643 522.841 243.388 523.466C243.132 524.081 243.004 524.74 243.004 525.44C243.004 526.378 243.217 527.235 243.643 528.011C244.079 528.788 244.666 529.408 245.405 529.872C246.153 530.336 247 530.568 247.947 530.568ZM268.64 531.023L268.484 532.585C268.361 533.835 268.124 535.08 267.773 536.321C267.433 537.571 267.073 538.703 266.694 539.716C266.325 540.729 266.026 541.525 265.799 542.102H261.879C262.021 541.544 262.215 540.762 262.461 539.759C262.707 538.764 262.939 537.647 263.157 536.406C263.375 535.166 263.512 533.902 263.569 532.614L263.64 531.023H268.64ZM282.006 535V530.568L292.362 520.98C293.242 520.128 293.981 519.361 294.577 518.679C295.183 517.997 295.643 517.33 295.955 516.676C296.268 516.013 296.424 515.298 296.424 514.531C296.424 513.679 296.23 512.945 295.842 512.33C295.453 511.705 294.923 511.226 294.251 510.895C293.578 510.554 292.816 510.384 291.964 510.384C291.074 510.384 290.297 510.563 289.634 510.923C288.971 511.283 288.46 511.799 288.1 512.472C287.74 513.144 287.56 513.944 287.56 514.872H281.722C281.722 512.969 282.153 511.316 283.015 509.915C283.877 508.513 285.084 507.429 286.637 506.662C288.19 505.895 289.98 505.511 292.006 505.511C294.09 505.511 295.903 505.881 297.447 506.619C299 507.348 300.207 508.362 301.069 509.659C301.931 510.956 302.362 512.443 302.362 514.119C302.362 515.218 302.144 516.302 301.708 517.372C301.282 518.442 300.52 519.631 299.421 520.938C298.323 522.235 296.774 523.793 294.776 525.611L290.529 529.773V529.972H302.745V535H282.006ZM319.858 505.909V535H313.707V511.747H313.537L306.875 515.923V510.469L314.077 505.909H319.858ZM336.545 502.486V538.438H325.337V533.906H330.692V507.003H325.337V502.486H336.545ZM366.048 520.653V525.455H352.781V520.653H366.048ZM384.798 520.653V525.455H371.531V520.653H384.798ZM403.548 520.653V525.455H390.281V520.653H403.548ZM419.78 538.438V502.486H430.987V507.003H425.632V533.906H430.987V538.438H419.78ZM445.124 535.398C442.937 535.398 440.991 535.043 439.286 534.332C437.591 533.613 436.261 532.633 435.295 531.392C434.329 530.152 433.846 528.745 433.846 527.173C433.846 525.961 434.121 524.848 434.67 523.835C435.228 522.812 435.986 521.965 436.942 521.293C437.899 520.611 438.969 520.175 440.153 519.986V519.787C438.6 519.474 437.34 518.722 436.374 517.528C435.408 516.326 434.925 514.929 434.925 513.338C434.925 511.832 435.366 510.492 436.246 509.318C437.127 508.134 438.335 507.206 439.869 506.534C441.412 505.852 443.164 505.511 445.124 505.511C447.085 505.511 448.832 505.852 450.366 506.534C451.909 507.216 453.121 508.149 454.002 509.332C454.883 510.507 455.328 511.842 455.337 513.338C455.328 514.938 454.835 516.335 453.86 517.528C452.885 518.722 451.635 519.474 450.11 519.787V519.986C451.275 520.175 452.331 520.611 453.278 521.293C454.234 521.965 454.992 522.812 455.55 523.835C456.119 524.848 456.407 525.961 456.417 527.173C456.407 528.745 455.92 530.152 454.954 531.392C453.988 532.633 452.653 533.613 450.948 534.332C449.253 535.043 447.312 535.398 445.124 535.398ZM445.124 530.881C446.1 530.881 446.952 530.705 447.681 530.355C448.41 529.995 448.978 529.503 449.386 528.878C449.802 528.243 450.011 527.514 450.011 526.69C450.011 525.848 449.798 525.104 449.371 524.46C448.945 523.807 448.368 523.295 447.638 522.926C446.909 522.547 446.071 522.358 445.124 522.358C444.187 522.358 443.349 522.547 442.61 522.926C441.871 523.295 441.289 523.807 440.863 524.46C440.446 525.104 440.238 525.848 440.238 526.69C440.238 527.514 440.442 528.243 440.849 528.878C441.256 529.503 441.829 529.995 442.567 530.355C443.306 530.705 444.158 530.881 445.124 530.881ZM445.124 517.884C445.939 517.884 446.663 517.718 447.298 517.386C447.932 517.055 448.429 516.596 448.789 516.009C449.149 515.421 449.329 514.744 449.329 513.977C449.329 513.22 449.149 512.557 448.789 511.989C448.429 511.411 447.937 510.961 447.312 510.639C446.687 510.308 445.958 510.142 445.124 510.142C444.3 510.142 443.571 510.308 442.937 510.639C442.302 510.961 441.805 511.411 441.445 511.989C441.095 512.557 440.92 513.22 440.92 513.977C440.92 514.744 441.1 515.421 441.46 516.009C441.819 516.596 442.317 517.055 442.951 517.386C443.585 517.718 444.31 517.884 445.124 517.884ZM466.531 531.023L466.374 532.585C466.251 533.835 466.014 535.08 465.664 536.321C465.323 537.571 464.963 538.703 464.585 539.716C464.215 540.729 463.917 541.525 463.69 542.102H459.769C459.911 541.544 460.105 540.762 460.352 539.759C460.598 538.764 460.83 537.647 461.048 536.406C461.265 535.166 461.403 533.902 461.46 532.614L461.531 531.023H466.531ZM492.553 505.909V535H486.403V511.747H486.232L479.57 515.923V510.469L486.772 505.909H492.553ZM499.467 535V530.568L509.822 520.98C510.703 520.128 511.442 519.361 512.038 518.679C512.644 517.997 513.104 517.33 513.416 516.676C513.729 516.013 513.885 515.298 513.885 514.531C513.885 513.679 513.691 512.945 513.303 512.33C512.914 511.705 512.384 511.226 511.712 510.895C511.039 510.554 510.277 510.384 509.425 510.384C508.535 510.384 507.758 510.563 507.095 510.923C506.432 511.283 505.921 511.799 505.561 512.472C505.201 513.144 505.021 513.944 505.021 514.872H499.183C499.183 512.969 499.614 511.316 500.476 509.915C501.338 508.513 502.545 507.429 504.098 506.662C505.651 505.895 507.441 505.511 509.467 505.511C511.551 505.511 513.364 505.881 514.908 506.619C516.461 507.348 517.668 508.362 518.53 509.659C519.392 510.956 519.822 512.443 519.822 514.119C519.822 515.218 519.605 516.302 519.169 517.372C518.743 518.442 517.981 519.631 516.882 520.938C515.784 522.235 514.235 523.793 512.237 525.611L507.99 529.773V529.972H520.206V535H499.467ZM531.296 531.023L531.14 532.585C531.017 533.835 530.78 535.08 530.43 536.321C530.089 537.571 529.729 538.703 529.35 539.716C528.981 540.729 528.683 541.525 528.455 542.102H524.535C524.677 541.544 524.871 540.762 525.117 539.759C525.363 538.764 525.595 537.647 525.813 536.406C526.031 535.166 526.168 533.902 526.225 532.614L526.296 531.023H531.296ZM544.663 535V530.568L555.018 520.98C555.898 520.128 556.637 519.361 557.234 518.679C557.84 517.997 558.299 517.33 558.612 516.676C558.924 516.013 559.08 515.298 559.08 514.531C559.08 513.679 558.886 512.945 558.498 512.33C558.11 511.705 557.579 511.226 556.907 510.895C556.235 510.554 555.472 510.384 554.62 510.384C553.73 510.384 552.953 510.563 552.29 510.923C551.628 511.283 551.116 511.799 550.756 512.472C550.397 513.144 550.217 513.944 550.217 514.872H544.379C544.379 512.969 544.809 511.316 545.671 509.915C546.533 508.513 547.74 507.429 549.293 506.662C550.846 505.895 552.636 505.511 554.663 505.511C556.746 505.511 558.559 505.881 560.103 506.619C561.656 507.348 562.863 508.362 563.725 509.659C564.587 510.956 565.018 512.443 565.018 514.119C565.018 515.218 564.8 516.302 564.364 517.372C563.938 518.442 563.176 519.631 562.077 520.938C560.979 522.235 559.431 523.793 557.433 525.611L553.185 529.773V529.972H565.401V535H544.663ZM569.858 535V530.568L580.213 520.98C581.094 520.128 581.832 519.361 582.429 518.679C583.035 517.997 583.494 517.33 583.807 516.676C584.119 516.013 584.276 515.298 584.276 514.531C584.276 513.679 584.081 512.945 583.693 512.33C583.305 511.705 582.775 511.226 582.102 510.895C581.43 510.554 580.668 510.384 579.815 510.384C578.925 510.384 578.149 510.563 577.486 510.923C576.823 511.283 576.312 511.799 575.952 512.472C575.592 513.144 575.412 513.944 575.412 514.872H569.574C569.574 512.969 570.005 511.316 570.866 509.915C571.728 508.513 572.936 507.429 574.489 506.662C576.042 505.895 577.831 505.511 579.858 505.511C581.941 505.511 583.755 505.881 585.298 506.619C586.851 507.348 588.059 508.362 588.92 509.659C589.782 510.956 590.213 512.443 590.213 514.119C590.213 515.218 589.995 516.302 589.56 517.372C589.134 518.442 588.371 519.631 587.273 520.938C586.174 522.235 584.626 523.793 582.628 525.611L578.381 529.773V529.972H590.597V535H569.858ZM604.826 502.486V538.438H593.619V533.906H598.974V507.003H593.619V502.486H604.826Z" fill="#575757"/>
<path d="M75.6392 392.438V356.486H86.8466V361.003H81.4915V387.906H86.8466V392.438H75.6392ZM102.788 359.909V389H96.6371V365.747H96.4666L89.8047 369.923V364.469L97.0064 359.909H102.788ZM120.866 389.398C119.37 389.388 117.926 389.137 116.534 388.645C115.152 388.152 113.911 387.352 112.812 386.244C111.714 385.136 110.843 383.669 110.199 381.841C109.564 380.013 109.247 377.769 109.247 375.108C109.257 372.665 109.536 370.482 110.085 368.56C110.644 366.628 111.439 364.99 112.472 363.645C113.513 362.3 114.759 361.277 116.207 360.577C117.656 359.866 119.28 359.511 121.08 359.511C123.021 359.511 124.735 359.89 126.222 360.648C127.708 361.396 128.902 362.414 129.801 363.702C130.71 364.99 131.259 366.434 131.449 368.034H125.384C125.147 367.021 124.65 366.225 123.892 365.648C123.134 365.07 122.197 364.781 121.08 364.781C119.186 364.781 117.746 365.605 116.761 367.253C115.786 368.901 115.289 371.14 115.27 373.972H115.469C115.904 373.11 116.491 372.376 117.23 371.77C117.978 371.154 118.826 370.686 119.773 370.364C120.729 370.032 121.738 369.866 122.798 369.866C124.522 369.866 126.056 370.274 127.401 371.088C128.745 371.893 129.806 373.001 130.582 374.412C131.359 375.823 131.747 377.437 131.747 379.256C131.747 381.225 131.288 382.977 130.369 384.511C129.46 386.045 128.187 387.248 126.548 388.119C124.92 388.981 123.026 389.407 120.866 389.398ZM120.838 384.568C121.785 384.568 122.633 384.341 123.381 383.886C124.129 383.432 124.716 382.816 125.142 382.04C125.568 381.263 125.781 380.392 125.781 379.426C125.781 378.46 125.568 377.594 125.142 376.827C124.725 376.06 124.148 375.449 123.409 374.994C122.67 374.54 121.828 374.312 120.881 374.312C120.17 374.312 119.512 374.445 118.906 374.71C118.31 374.975 117.784 375.345 117.33 375.818C116.884 376.292 116.534 376.841 116.278 377.466C116.023 378.081 115.895 378.74 115.895 379.44C115.895 380.378 116.108 381.235 116.534 382.011C116.97 382.788 117.557 383.408 118.295 383.872C119.044 384.336 119.891 384.568 120.838 384.568ZM141.531 385.023L141.374 386.585C141.251 387.835 141.014 389.08 140.664 390.321C140.323 391.571 139.963 392.703 139.585 393.716C139.215 394.729 138.917 395.525 138.69 396.102H134.769C134.911 395.544 135.105 394.762 135.352 393.759C135.598 392.764 135.83 391.647 136.048 390.406C136.265 389.166 136.403 387.902 136.46 386.614L136.531 385.023H141.531ZM154.897 389V384.568L165.252 374.98C166.133 374.128 166.871 373.361 167.468 372.679C168.074 371.997 168.533 371.33 168.846 370.676C169.158 370.013 169.315 369.298 169.315 368.531C169.315 367.679 169.121 366.945 168.732 366.33C168.344 365.705 167.814 365.226 167.141 364.895C166.469 364.554 165.707 364.384 164.854 364.384C163.964 364.384 163.188 364.563 162.525 364.923C161.862 365.283 161.351 365.799 160.991 366.472C160.631 367.144 160.451 367.944 160.451 368.872H154.613C154.613 366.969 155.044 365.316 155.906 363.915C156.767 362.513 157.975 361.429 159.528 360.662C161.081 359.895 162.871 359.511 164.897 359.511C166.98 359.511 168.794 359.881 170.337 360.619C171.89 361.348 173.098 362.362 173.96 363.659C174.821 364.956 175.252 366.443 175.252 368.119C175.252 369.218 175.034 370.302 174.599 371.372C174.173 372.442 173.41 373.631 172.312 374.938C171.213 376.235 169.665 377.793 167.667 379.611L163.42 383.773V383.972H175.636V389H154.897ZM192.749 359.909V389H186.598V365.747H186.428L179.766 369.923V364.469L186.967 359.909H192.749ZM209.435 356.486V392.438H198.228V387.906H203.583V361.003H198.228V356.486H209.435ZM238.938 372.054V376.855H225.671V372.054H238.938ZM257.688 372.054V376.855H244.421V372.054H257.688ZM273.92 392.438V356.486H285.128V361.003H279.773V387.906H285.128V392.438H273.92ZM301.069 359.909V389H294.918V365.747H294.748L288.086 369.923V364.469L295.288 359.909H301.069ZM320.639 359.909V389H314.489V365.747H314.318L307.656 369.923V364.469L314.858 359.909H320.639ZM337.326 356.486V392.438H326.119V387.906H331.474V361.003H326.119V356.486H337.326ZM366.829 374.653V379.455H353.562V374.653H366.829ZM385.579 374.653V379.455H372.312V374.653H385.579ZM404.329 374.653V379.455H391.062V374.653H404.329ZM420.561 392.438V356.486H431.768V361.003H426.413V387.906H431.768V392.438H420.561ZM445.906 389.398C443.718 389.398 441.772 389.043 440.067 388.332C438.372 387.613 437.042 386.633 436.076 385.392C435.11 384.152 434.627 382.745 434.627 381.173C434.627 379.961 434.902 378.848 435.451 377.835C436.01 376.812 436.767 375.965 437.724 375.293C438.68 374.611 439.75 374.175 440.934 373.986V373.787C439.381 373.474 438.121 372.722 437.156 371.528C436.19 370.326 435.707 368.929 435.707 367.338C435.707 365.832 436.147 364.492 437.028 363.318C437.908 362.134 439.116 361.206 440.65 360.534C442.193 359.852 443.945 359.511 445.906 359.511C447.866 359.511 449.613 359.852 451.147 360.534C452.691 361.216 453.903 362.149 454.783 363.332C455.664 364.507 456.109 365.842 456.119 367.338C456.109 368.938 455.617 370.335 454.641 371.528C453.666 372.722 452.416 373.474 450.891 373.787V373.986C452.056 374.175 453.112 374.611 454.059 375.293C455.015 375.965 455.773 376.812 456.332 377.835C456.9 378.848 457.189 379.961 457.198 381.173C457.189 382.745 456.701 384.152 455.735 385.392C454.769 386.633 453.434 387.613 451.729 388.332C450.034 389.043 448.093 389.398 445.906 389.398ZM445.906 384.881C446.881 384.881 447.733 384.705 448.462 384.355C449.192 383.995 449.76 383.503 450.167 382.878C450.584 382.243 450.792 381.514 450.792 380.69C450.792 379.848 450.579 379.104 450.153 378.46C449.727 377.807 449.149 377.295 448.42 376.926C447.691 376.547 446.853 376.358 445.906 376.358C444.968 376.358 444.13 376.547 443.391 376.926C442.653 377.295 442.07 377.807 441.644 378.46C441.228 379.104 441.019 379.848 441.019 380.69C441.019 381.514 441.223 382.243 441.63 382.878C442.037 383.503 442.61 383.995 443.349 384.355C444.087 384.705 444.94 384.881 445.906 384.881ZM445.906 371.884C446.72 371.884 447.444 371.718 448.079 371.386C448.713 371.055 449.21 370.596 449.57 370.009C449.93 369.421 450.11 368.744 450.11 367.977C450.11 367.22 449.93 366.557 449.57 365.989C449.21 365.411 448.718 364.961 448.093 364.639C447.468 364.308 446.739 364.142 445.906 364.142C445.082 364.142 444.353 364.308 443.718 364.639C443.084 364.961 442.586 365.411 442.227 365.989C441.876 366.557 441.701 367.22 441.701 367.977C441.701 368.744 441.881 369.421 442.241 370.009C442.601 370.596 443.098 371.055 443.732 371.386C444.367 371.718 445.091 371.884 445.906 371.884ZM467.312 385.023L467.156 386.585C467.032 387.835 466.796 389.08 466.445 390.321C466.104 391.571 465.745 392.703 465.366 393.716C464.996 394.729 464.698 395.525 464.471 396.102H460.55C460.692 395.544 460.887 394.762 461.133 393.759C461.379 392.764 461.611 391.647 461.829 390.406C462.047 389.166 462.184 387.902 462.241 386.614L462.312 385.023H467.312ZM493.335 359.909V389H487.184V365.747H487.013L480.352 369.923V364.469L487.553 359.909H493.335ZM500.249 389V384.568L510.604 374.98C511.484 374.128 512.223 373.361 512.82 372.679C513.426 371.997 513.885 371.33 514.197 370.676C514.51 370.013 514.666 369.298 514.666 368.531C514.666 367.679 514.472 366.945 514.084 366.33C513.696 365.705 513.165 365.226 512.493 364.895C511.821 364.554 511.058 364.384 510.206 364.384C509.316 364.384 508.539 364.563 507.876 364.923C507.214 365.283 506.702 365.799 506.342 366.472C505.982 367.144 505.803 367.944 505.803 368.872H499.964C499.964 366.969 500.395 365.316 501.257 363.915C502.119 362.513 503.326 361.429 504.879 360.662C506.432 359.895 508.222 359.511 510.249 359.511C512.332 359.511 514.145 359.881 515.689 360.619C517.242 361.348 518.449 362.362 519.311 363.659C520.173 364.956 520.604 366.443 520.604 368.119C520.604 369.218 520.386 370.302 519.95 371.372C519.524 372.442 518.762 373.631 517.663 374.938C516.565 376.235 515.017 377.793 513.018 379.611L508.771 383.773V383.972H520.987V389H500.249ZM535.217 356.486V392.438H524.009V387.906H529.364V361.003H524.009V356.486H535.217ZM564.719 372.054V376.855H551.452V372.054H564.719ZM583.469 372.054V376.855H570.202V372.054H583.469ZM599.702 392.438V356.486H610.909V361.003H605.554V387.906H610.909V392.438H599.702ZM614.194 389V384.568L624.549 374.98C625.43 374.128 626.168 373.361 626.765 372.679C627.371 371.997 627.83 371.33 628.143 370.676C628.455 370.013 628.612 369.298 628.612 368.531C628.612 367.679 628.417 366.945 628.029 366.33C627.641 365.705 627.111 365.226 626.438 364.895C625.766 364.554 625.004 364.384 624.151 364.384C623.261 364.384 622.485 364.563 621.822 364.923C621.159 365.283 620.647 365.799 620.288 366.472C619.928 367.144 619.748 367.944 619.748 368.872H613.91C613.91 366.969 614.341 365.316 615.202 363.915C616.064 362.513 617.272 361.429 618.825 360.662C620.378 359.895 622.167 359.511 624.194 359.511C626.277 359.511 628.091 359.881 629.634 360.619C631.187 361.348 632.395 362.362 633.256 363.659C634.118 364.956 634.549 366.443 634.549 368.119C634.549 369.218 634.331 370.302 633.896 371.372C633.469 372.442 632.707 373.631 631.609 374.938C630.51 376.235 628.962 377.793 626.964 379.611L622.717 383.773V383.972H634.933V389H614.194ZM639.389 389V384.568L649.744 374.98C650.625 374.128 651.364 373.361 651.96 372.679C652.566 371.997 653.026 371.33 653.338 370.676C653.651 370.013 653.807 369.298 653.807 368.531C653.807 367.679 653.613 366.945 653.224 366.33C652.836 365.705 652.306 365.226 651.634 364.895C650.961 364.554 650.199 364.384 649.347 364.384C648.456 364.384 647.68 364.563 647.017 364.923C646.354 365.283 645.843 365.799 645.483 366.472C645.123 367.144 644.943 367.944 644.943 368.872H639.105C639.105 366.969 639.536 365.316 640.398 363.915C641.259 362.513 642.467 361.429 644.02 360.662C645.573 359.895 647.363 359.511 649.389 359.511C651.473 359.511 653.286 359.881 654.83 360.619C656.383 361.348 657.59 362.362 658.452 363.659C659.313 364.956 659.744 366.443 659.744 368.119C659.744 369.218 659.527 370.302 659.091 371.372C658.665 372.442 657.902 373.631 656.804 374.938C655.705 376.235 654.157 377.793 652.159 379.611L647.912 383.773V383.972H660.128V389H639.389ZM674.357 356.486V392.438H663.15V387.906H668.505V361.003H663.15V356.486H674.357Z" fill="#575757"/>
<path d="M260.518 194.234C260.648 195.052 261.416 195.611 262.234 195.482L275.569 193.376C276.387 193.247 276.946 192.479 276.816 191.661C276.687 190.842 275.919 190.284 275.101 190.413L263.248 192.284L261.376 180.431C261.247 179.613 260.479 179.054 259.661 179.184C258.842 179.313 258.284 180.081 258.413 180.899L260.518 194.234ZM308.787 127.118L260.787 193.118L263.213 194.882L311.213 128.882L308.787 127.118Z" fill="black"/>
<path d="M183.518 321.234C183.648 322.052 184.416 322.611 185.234 322.482L198.569 320.376C199.387 320.247 199.946 319.479 199.816 318.661C199.687 317.842 198.919 317.284 198.101 317.413L186.248 319.284L184.376 307.431C184.247 306.613 183.479 306.054 182.661 306.184C181.842 306.313 181.284 307.081 181.413 307.899L183.518 321.234ZM231.787 254.118L183.787 320.118L186.213 321.882L234.213 255.882L231.787 254.118Z" fill="black"/>
<path d="M455.518 335.234C455.648 336.052 456.416 336.611 457.234 336.482L470.569 334.376C471.387 334.247 471.946 333.479 471.816 332.661C471.687 331.842 470.919 331.284 470.101 331.413L458.248 333.284L456.376 321.431C456.247 320.613 455.479 320.054 454.661 320.184C453.842 320.313 453.284 321.081 453.413 321.899L455.518 335.234ZM503.787 268.118L455.787 334.118L458.213 335.882L506.213 269.882L503.787 268.118Z" fill="black"/>
<path d="M570.518 476.234C570.648 477.052 571.416 477.611 572.234 477.482L585.569 475.376C586.387 475.247 586.946 474.479 586.816 473.661C586.687 472.842 585.919 472.284 585.101 472.413L573.248 474.284L571.376 462.431C571.247 461.613 570.479 461.054 569.661 461.184C568.842 461.313 568.284 462.081 568.413 462.899L570.518 476.234ZM618.787 409.118L570.787 475.118L573.213 476.882L621.213 410.882L618.787 409.118Z" fill="black"/>
<path d="M244.518 483.234C244.648 484.052 245.416 484.611 246.234 484.482L259.569 482.376C260.387 482.247 260.946 481.479 260.816 480.661C260.687 479.842 259.919 479.284 259.101 479.413L247.248 481.284L245.376 469.431C245.247 468.613 244.479 468.054 243.661 468.184C242.842 468.313 242.284 469.081 242.413 469.899L244.518 483.234ZM292.787 416.118L244.787 482.118L247.213 483.882L295.213 417.882L292.787 416.118Z" fill="black"/>
<path d="M462.518 620.234C462.648 621.052 463.416 621.611 464.234 621.482L477.569 619.376C478.387 619.247 478.946 618.479 478.816 617.661C478.687 616.842 477.919 616.284 477.101 616.413L465.248 618.284L463.376 606.431C463.247 605.613 462.479 605.054 461.661 605.184C460.842 605.313 460.284 606.081 460.413 606.899L462.518 620.234ZM510.787 553.118L462.787 619.118L465.213 620.882L513.213 554.882L510.787 553.118Z" fill="black"/>
<path d="M472.572 195.438C473.366 195.674 474.201 195.222 474.438 194.428L478.292 181.49C478.528 180.696 478.076 179.861 477.282 179.624C476.488 179.388 475.653 179.84 475.416 180.634L471.991 192.134L460.49 188.708C459.696 188.472 458.861 188.924 458.624 189.718C458.388 190.512 458.84 191.347 459.634 191.584L472.572 195.438ZM438.681 133.714L471.681 194.714L474.319 193.286L441.319 132.286L438.681 133.714Z" fill="black"/>
<path d="M604.572 331.438C605.366 331.674 606.201 331.222 606.438 330.428L610.292 317.49C610.528 316.696 610.076 315.861 609.282 315.624C608.488 315.388 607.653 315.84 607.416 316.634L603.991 328.134L592.49 324.708C591.696 324.472 590.861 324.924 590.624 325.718C590.388 326.512 590.84 327.347 591.634 327.584L604.572 331.438ZM570.681 269.714L603.681 330.714L606.319 329.286L573.319 268.286L570.681 269.714Z" fill="black"/>
<path d="M302.572 320.438C303.366 320.674 304.201 320.222 304.438 319.428L308.292 306.49C308.528 305.696 308.076 304.861 307.282 304.624C306.488 304.388 305.653 304.84 305.416 305.634L301.991 317.134L290.49 313.708C289.696 313.472 288.861 313.924 288.624 314.718C288.388 315.512 288.84 316.347 289.634 316.584L302.572 320.438ZM268.681 258.714L301.681 319.714L304.319 318.286L271.319 257.286L268.681 258.714Z" fill="black"/>
<path d="M197.517 480.42C198.302 480.687 199.154 480.267 199.42 479.483L203.764 466.7C204.03 465.916 203.61 465.064 202.826 464.798C202.042 464.531 201.19 464.951 200.923 465.735L197.062 477.097L185.7 473.236C184.916 472.97 184.064 473.39 183.798 474.174C183.531 474.958 183.951 475.81 184.735 476.077L197.517 480.42ZM162.654 410.663L196.654 479.663L199.346 478.337L165.346 409.337L162.654 410.663Z" fill="black"/>
<path d="M309.517 624.42C310.302 624.687 311.154 624.267 311.42 623.483L315.764 610.7C316.03 609.916 315.61 609.064 314.826 608.798C314.042 608.531 313.19 608.951 312.923 609.735L309.062 621.097L297.7 617.236C296.916 616.97 296.064 617.39 295.798 618.174C295.531 618.958 295.951 619.81 296.735 620.077L309.517 624.42ZM274.654 554.663L308.654 623.663L311.346 622.337L277.346 553.337L274.654 554.663Z" fill="black"/>
<path d="M504.517 484.42C505.302 484.687 506.154 484.267 506.42 483.483L510.764 470.7C511.03 469.916 510.61 469.064 509.826 468.798C509.042 468.531 508.19 468.951 507.923 469.735L504.062 481.097L492.7 477.236C491.916 476.97 491.064 477.39 490.798 478.174C490.531 478.958 490.951 479.81 491.735 480.077L504.517 484.42ZM469.654 414.663L503.654 483.663L506.346 482.337L472.346 413.337L469.654 414.663Z" fill="black"/>
</svg>
